# AST/ASF file generated using VICON BodyLanguage
# -----------------------------------------------
:version 1.10
:name VICON
:units
  mass 1.0
  length 0.45
  angle deg
:documentation
   .ast/.asf automatically generated from VICON data using
   VICON BodyBuilder and BodyLanguage model FoxedUp or BRILLIANT.MOD
:root
   order TX TY TZ RX RY RZ
   axis XYZ
   position 0 0 0  
   orientation 0 0 0 
:bonedata
  begin
     id 1 
     name lhipjoint
     direction 0.630305 -0.712092 0.309259 
     length 2.29033 
     axis 0 0 0  XYZ
  end
  begin
     id 2 
     name lfemur
     direction 0.34202 -0.939693 0  
     length 6.43538  
     axis 0 0 20  XYZ
    dof rx ry rz
    limits (-160.0 20.0)
           (-70.0 70.0)
           (-60.0 70.0)
  end
  begin
     id 3 
     name ltibia
     direction 0.34202 -0.939693 0   
     length 7.43097   
     axis 0 0 20   XYZ
    dof rx
    limits (-10.0 170.0)
  end
  begin
     id 4 
     name lfoot
     direction 0.0334653 -0.0919451 0.995202   
     length 1.78438   
     axis -90 7.62852e-016 20   XYZ
    dof rx rz
    limits (-45.0 90.0)
           (-70.0 20.0)
  end
  begin
     id 5 
     name ltoes
     direction 1.53535e-011 -4.21933e-011 1   
     length 0.90832   
     axis -90 7.62852e-016 20   XYZ
    dof rx
    limits (-90.0 20.0)
  end
  begin
     id 6 
     name rhipjoint
     direction -0.682059 -0.67077 0.291312   
     length 2.43143  
     axis 0 0 0  XYZ 
  end
  begin
     id 7 
     name rfemur
     direction -0.34202 -0.939693 0   
     length 6.63488   
     axis 0 0 -20   XYZ
    dof rx ry rz
    limits (-160.0 20.0)
           (-70.0 70.0)
           (-70.0 60.0)
  end
  begin
     id 8 
     name rtibia
     direction -0.34202 -0.939693 0   
     length 6.86532   
     axis 0 0 -20   XYZ
    dof rx
    limits (-10.0 170.0)
 end
 begin
     id 9 
     name rfoot
     direction -0.105199 -0.289033 0.951521   
     length 1.77126  
     axis -90 -7.62852e-016 -20   XYZ
    dof rx rz
    limits (-45.0 90.0)
           (-20.0 70.0)
  end
  begin
     id 10 
     name rtoes
     direction -1.53551e-011 -4.21978e-011 1   
     length 0.889273   
     axis -90 -7.62852e-016 -20   XYZ
    dof rx
    limits (-90.0 20.0)
  end
  begin
     id 11 
     name lowerback
     direction -0.0514305 0.998089 0.034245   
     length 2.02077   
     axis 0 0 0   XYZ
    dof rx ry rz
    limits (-20.0 45.0)
           (-30.0 30.0)
           (-30.0 30.0)
  end
  begin
     id 12 
     name upperback
     direction 0.0203189 0.999449 -0.0262315   
     length 2.01413   
     axis 0 0 0   XYZ
    dof rx ry rz
    limits (-20.0 45.0)
           (-30.0 30.0)
           (-30.0 30.0)
  end
  begin
     id 13 
     name thorax
     direction 0.0452736 0.998142 -0.0407729   
     length 2.02986   
     axis 0 0 0   XYZ
    dof rx ry rz
    limits (-20.0 45.0)
           (-30.0 30.0)
           (-30.0 30.0)
  end
  begin
     id 14 
     name lowerneck
     direction -0.0180464 0.999645 -0.0195774   
     length 1.59034   
     axis 0 0 0   XYZ
    dof rx ry rz
    limits (-20.0 45.0)
           (-30.0 30.0)
           (-30.0 30.0)
  end
  begin
     id 15 
     name upperneck
     direction 0.0732272 0.979935 -0.18538   
     length 1.57486   
     axis 0 0 0   XYZ
    dof rx ry rz
    limits (-20.0 45.0)
           (-30.0 30.0)
           (-30.0 30.0)
  end
  begin
     id 16
     name head
     direction 0.0252963 0.997909 -0.059472  
     length 1.60334  
     axis 0 0 0   XYZ
    dof rx ry rz
    limits (-20.0 45.0)
           (-30.0 30.0)
           (-30.0 30.0)
  end
  begin
     id 17 
     name lclavicle
     direction 0.943819 0.330449 0.00315172  
     length 3.50322  
     axis 0 0 0   XYZ
    dof ry rz
    limits (-20.0 10.0)
           (0.0 20.0)
  end
  begin
     id 18 
     name lhumerus
     direction 1 -4.48949e-011 2.22502e-028   
     length 4.63208   
     axis 180 -30 -90   XYZ
    dof rx ry rz
    limits (-60.0 90.0)
           (-90.0 90.0)
           (-90.0 90.0)
  end
  begin
     id 19
     name lradius
     direction 1 -4.48967e-011 -4.10197e-027   
     length 3.41924   
     axis 180 -30 -90   XYZ
    dof rx
    limits (-10.0 170.0)
  end
  begin
     id 20
     name lwrist
     direction 1 -4.48987e-011 -1.24264e-027   
     length 1.70962   
     axis 2.50585e-015 90 90   XYZ
    dof ry
    limits (-180.0 0.0)
 end
  begin
     id 21 
     name lhand
     direction 1 -4.48983e-011 -2.48528e-027   
     length 0.62537   
     axis 1.58582e-015 90 90   XYZ
    dof rx rz
    limits (-90.0 90.0)
           (-45.0 45.0)
  end
  begin
     id 22 
     name lfingers
     direction 1 -4.48896e-011 -4.97056e-027   
     length 0.50419   
     axis 3.17164e-015 90 90   XYZ
    dof rx
    limits (0.0 90.0)
  end
  begin
     id 23
     name lthumb
     direction 0.707107 -6.34803e-011 0.707107   
     length 0.723919   
     axis -90 45 2.85299e-015   XYZ
    dof rx rz
    limits (-45.0 45.0)
           (-45.0 45.0)
  end
  begin
     id 24 
     name rclavicle
     direction -0.964499 0.260664 -0.0423695   
     length 3.91997  
     axis 0 0 0   XYZ 
    dof ry rz
    limits (-10.0 20.0)
           (-20.0 0.0)
  end
  begin
     id 25 
     name rhumerus
     direction -1 -4.48957e-011 -1.98656e-027  
     length 4.4064   
     axis 180 30 90   XYZ
    dof rx ry rz
    limits (-90.0 60.0)
           (-90.0 90.0)
           (-90.0 90.0)
  end
  begin
     id 26 
     name rradius
     direction -1 -4.48968e-011 1.96972e-027   
     length 3.44675   
     axis 180 30 90   XYZ
    dof rx
    limits (-10.0 170.0)
  end
  begin
     id 27 
     name rwrist
     direction -1 -4.48974e-011 -1.24264e-027   
     length 1.72338   
     axis 2.50585e-015 -90 -90   XYZ
    dof ry
    limits (-180.0 0.0)
  end
  begin
     id 28
     name rhand
     direction -1 -4.48901e-011 -2.48528e-027   
     length 0.513674   
     axis 1.58582e-015 -90 -90   XYZ
    dof rx rz
    limits (-90.0 90.0)
           (-45.0 45.0)
  end
  begin
     id 29
     name rfingers
     direction -1 -4.48946e-011 -4.97056e-027   
     length 0.414137   
     axis 3.17164e-015 -90 -90   XYZ
    dof rx
    limits (0.0 90.0)
  end
  begin
     id 30
     name rthumb
     direction -0.707107 -6.34859e-011 0.707107   
     length 0.59462   
     axis -90 -45 -2.85299e-015   XYZ
    dof rx rz
    limits (-45.0 45.0)
           (-45.0 45.0)
  end
:hierarchy
  begin
    root lhipjoint rhipjoint lowerback
    lhipjoint lfemur
    lfemur ltibia
    ltibia lfoot
    lfoot ltoes
    rhipjoint rfemur
    rfemur rtibia
    rtibia rfoot
    rfoot rtoes
    lowerback upperback
    upperback thorax
    thorax lowerneck lclavicle rclavicle
    lowerneck upperneck
    upperneck head
    lclavicle lhumerus
    lhumerus lradius
    lradius lwrist
    lwrist lhand lthumb
    lhand lfingers
    rclavicle rhumerus
    rhumerus rradius
    rradius rwrist
    rwrist rhand rthumb
    rhand rfingers
  end

#!OML:ASF E:\inclinewalkrobotboard\Project 1\Capture day 1\Session 1\subject1.ASF
:FULLY-SPECIFIED
:DEGREES
48
root 8.04328 16.5995 23.6606 -169.425 2.98596 -179.133
lowerback -8.71331 2.36991 -5.35562
upperback 0.0394489 3.6719 1.31575
thorax 4.50642 1.6995 4.83479
lowerneck -8.16112 0.66174 -3.98795
upperneck 25.8649 -2.23794 7.58917
head 9.58437 -1.34527 2.97364
rclavicle 2.68359e-014 0
rhumerus -43.5901 -33.1133 -68.2065
rradius 25.8588
rwrist 17.9854
rhand -18.3499 -41.4386
rfingers 7.12502
rthumb 7.93267 -71.2697
lclavicle 2.68359e-014 0
lhumerus -29.1827 12.742 83.8752
lradius 13.9106
lwrist -35.7475
lhand -27.8269 -19.2136
lfingers 7.12502
lthumb -1.21873 10.7627
rfemur -10.1555 2.3788 20.8493
rtibia 11.1773
rfoot -16.417 -5.95343
rtoes -18.9517
lfemur -11.1878 -8.35455 -18.7201
ltibia 14.8304
lfoot -18.3463 4.49523
ltoes -55.6501
49
root 8.02114 16.5983 23.6371 -169.393 2.91016 -179.111
lowerback -8.7322 2.36975 -5.34213
upperback 0.0360759 3.67086 1.33577
thorax 4.51313 1.69913 4.84917
lowerneck -8.61605 0.739104 -3.49508
upperneck 26.141 -2.10253 7.15965
head 9.75722 -1.26398 2.75724
rclavicle -1.26228e-014 -7.7526e-015
rhumerus -43.4674 -32.7669 -68.4859
rradius 26.2972
rwrist 18.1068
rhand -17.1934 -43.9289
rfingers 7.12502
rthumb 9.04874 -73.7148
lclavicle -1.26228e-014 -7.7526e-015
lhumerus -29.1587 12.4593 84.0621
lradius 14.0528
lwrist -35.458
lhand -27.7132 -19.4212
lfingers 7.12502
lthumb -1.10888 10.5557
rfemur -10.2009 2.41141 20.7844
rtibia 11.3989
rfoot -16.6168 -5.97689
rtoes -18.3764
lfemur -10.9383 -8.2946 -18.792
ltibia 14.4316
lfoot -18.1198 4.42066
ltoes -55.6181
50
root 7.99961 16.5964 23.6088 -169.412 2.82906 -179.112
lowerback -8.7022 2.27511 -5.42713
upperback 0.0858879 3.54681 1.4438
thorax 4.55167 1.63175 4.99723
lowerneck -8.49428 0.697504 -3.88644
upperneck 25.9795 -2.13084 7.3935
head 9.68055 -1.29036 2.90232
rclavicle 3.10601e-015 3.77691e-015
rhumerus -43.131 -32.2858 -68.7521
rradius 26.5781
rwrist 18.2738
rhand -16.3121 -46.2409
rfingers 7.12502
rthumb 9.89905 -75.9881
lclavicle 3.10601e-015 3.77691e-015
lhumerus -29.0752 12.6377 84.2065
lradius 14.1344
lwrist -35.3145
lhand -27.6461 -19.5669
lfingers 7.12502
lthumb -1.04409 10.4103
rfemur -10.124 2.37604 20.692
rtibia 11.5233
rfoot -16.7431 -5.97367
rtoes -18.0305
lfemur -10.8025 -8.29355 -18.8931
ltibia 14.3912
lfoot -18.1237 4.29568
ltoes -55.4434
51
root 7.97839 16.5924 23.5764 -169.367 2.69772 -179.061
lowerback -8.72923 2.17444 -5.43448
upperback 0.111484 3.4113 1.53995
thorax 4.60425 1.56108 5.09035
lowerneck -8.65191 0.695761 -4.12148
upperneck 26.0415 -2.1085 7.48952
head 9.73309 -1.28737 2.98157
rclavicle 3.48619e-014 1.45113e-014
rhumerus -42.7896 -31.849 -69.0496
rradius 26.6766
rwrist 17.6794
rhand -16.4772 -45.6736
rfingers 7.12502
rthumb 9.73973 -75.4284
lclavicle 3.48619e-014 1.45113e-014
lhumerus -28.9683 12.7565 84.3291
lradius 14.1865
lwrist -35.1983
lhand -27.763 -19.5121
lfingers 7.12502
lthumb -1.15705 10.4645
rfemur -10.019 2.37273 20.68
rtibia 11.5275
rfoot -16.8003 -6.11351
rtoes -18.2267
lfemur -10.9258 -8.30508 -18.9239
ltibia 14.7173
lfoot -18.3342 4.0843
ltoes -55.2161
52
root 7.956 16.5899 23.5438 -169.294 2.5805 -178.864
lowerback -8.73594 2.17019 -5.23047
upperback 0.052195 3.38506 1.58766
thorax 4.55753 1.55679 5.02077
lowerneck -8.85448 0.753696 -3.78949
upperneck 26.3155 -2.02192 7.12718
head 9.8613 -1.25317 2.80965
rclavicle -1.43125e-014 9.54166e-015
rhumerus -42.9084 -32.1371 -68.7091
rradius 26.3752
rwrist 17.6838
rhand -17.4622 -43.8682
rfingers 7.12502
rthumb 8.78934 -73.6652
lclavicle -1.43125e-014 9.54166e-015
lhumerus -28.9675 12.3201 84.4948
lradius 14.3002
lwrist -34.8748
lhand -27.8255 -19.1867
lfingers 7.12502
lthumb -1.21739 10.7896
rfemur -9.95652 2.54274 20.8523
rtibia 11.5839
rfoot -16.9025 -6.36015
rtoes -18.6999
lfemur -11.0791 -8.26549 -18.7816
ltibia 15.0622
lfoot -18.5626 3.85949
ltoes -55.026
53
root 7.9293 16.5873 23.5073 -169.18 2.48043 -178.733
lowerback -8.80558 2.1737 -5.0815
upperback -0.0277269 3.37915 1.63259
thorax 4.51916 1.56191 4.9845
lowerneck -8.1311 0.587765 -4.28027
upperneck 25.8149 -2.28905 7.6209
head 9.56585 -1.39221 3.02985
rclavicle -4.13721e-014 -3.77691e-015
rhumerus -42.9506 -31.8883 -68.7916
rradius 26.6088
rwrist 17.2787
rhand -18.1056 -45.202
rfingers 7.12502
rthumb 8.16838 -75.0242
lclavicle -4.13721e-014 -3.77691e-015
lhumerus -28.9699 11.8367 84.713
lradius 14.3869
lwrist -34.446
lhand -27.7958 -18.9926
lfingers 7.12502
lthumb -1.18874 10.9838
rfemur -9.94267 2.52631 20.9066
rtibia 11.661
rfoot -17.0464 -6.31664
rtoes -18.8027
lfemur -11.2033 -8.28578 -18.7516
ltibia 15.3416
lfoot -18.7843 3.67622
ltoes -54.8701
54
root 7.90151 16.5842 23.4694 -169.028 2.35138 -178.75
lowerback -8.90132 2.12903 -5.1277
upperback -0.0778828 3.32967 1.67227
thorax 4.52147 1.53838 5.05064
lowerneck -8.45361 0.617622 -4.16188
upperneck 26.0513 -2.23578 7.46766
head 9.70712 -1.36427 2.96587
rclavicle -1.80149e-014 -1.98785e-015
rhumerus -42.9021 -31.4958 -68.9917
rradius 27.2145
rwrist 17.4396
rhand -16.283 -47.2414
rfingers 7.12502
rthumb 9.92714 -76.9873
lclavicle -1.80149e-014 -1.98785e-015
lhumerus -28.9419 11.6564 84.8685
lradius 14.4813
lwrist -34.2145
lhand -27.8044 -19.0051
lfingers 7.12502
lthumb -1.19698 10.9713
rfemur -9.9488 2.4526 20.7679
rtibia 11.6834
rfoot -17.1788 -6.27281
rtoes -18.5593
lfemur -11.3541 -8.34209 -18.8848
ltibia 15.5657
lfoot -18.9171 3.45231
ltoes -54.6285
55
root 7.87565 16.5823 23.4303 -168.928 2.29301 -178.793
lowerback -8.93926 2.10834 -5.23452
upperback -0.115046 3.31592 1.67076
thorax 4.49974 1.53148 5.10873
lowerneck -8.62798 0.597416 -4.1508
upperneck 26.1157 -2.29291 7.57278
head 9.76901 -1.37415 2.99671
rclavicle -1.17034e-014 -9.93923e-015
rhumerus -42.9461 -31.5905 -68.8835
rradius 27.0256
rwrist 16.8062
rhand -17.0361 -45.3753
rfingers 7.12502
rthumb 9.20049 -75.1546
lclavicle -1.17034e-014 -9.93923e-015
lhumerus -28.9932 11.3922 84.9668
lradius 14.6724
lwrist -34.0043
lhand -27.7782 -19.1813
lfingers 7.12502
lthumb -1.17171 10.7952
rfemur -9.95873 2.59972 20.6124
rtibia 11.8027
rfoot -17.3202 -6.48931
rtoes -18.8101
lfemur -11.4071 -8.43188 -19.0516
ltibia 15.7187
lfoot -19.0514 3.20616
ltoes -54.1164
56
root 7.84765 16.5803 23.3863 -168.897 2.31175 -178.767
lowerback -8.92325 2.10864 -5.24672
upperback -0.150096 3.31713 1.67879
thorax 4.45269 1.53488 5.12203
lowerneck -8.50213 0.566277 -4.18539
upperneck 26.0393 -2.37424 7.71047
head 9.72437 -1.40681 3.04059
rclavicle -4.74598e-015 6.16232e-015
rhumerus -43.149 -31.8343 -68.5227
rradius 26.7496
rwrist 16.6329
rhand -18.0031 -42.768
rfingers 7.12502
rthumb 8.26737 -72.5862
lclavicle -4.74598e-015 6.16232e-015
lhumerus -29.0597 11.2675 85.0051
lradius 14.797
lwrist -33.7899
lhand -27.8001 -19.4425
lfingers 7.12502
lthumb -1.19284 10.5339
rfemur -9.94394 2.73292 20.5378
rtibia 12.0345
rfoot -17.506 -6.60901
rtoes -19.1595
lfemur -11.2723 -8.51331 -19.1812
ltibia 15.7384
lfoot -19.2098 2.90029
ltoes -53.3138
57
root 7.81545 16.5775 23.3408 -168.889 2.37197 -178.709
lowerback -8.8312 2.11273 -5.15994
upperback -0.187226 3.30884 1.69705
thorax 4.36677 1.53705 5.08463
lowerneck -8.52433 0.569128 -4.24819
upperneck 26.0827 -2.39535 7.80288
head 9.7468 -1.41601 3.08243
rclavicle -2.93207e-014 -7.35503e-015
rhumerus -43.1671 -31.3896 -68.6998
rradius 26.8971
rwrist 15.8379
rhand -19.0989 -39.4099
rfingers 7.12502
rthumb 7.20971 -69.2671
lclavicle -2.93207e-014 -7.35503e-015
lhumerus -29.032 11.4341 84.9456
lradius 14.7316
lwrist -33.785
lhand -27.8447 -19.4014
lfingers 7.12502
lthumb -1.23592 10.5748
rfemur -9.89729 2.92926 20.4867
rtibia 12.2689
rfoot -17.7092 -6.63666
rtoes -18.9958
lfemur -11.0415 -8.44445 -19.2802
ltibia 15.6377
lfoot -19.2921 2.5718
ltoes -52.6417
58
root 7.78228 16.5744 23.2947 -168.862 2.38679 -178.657
lowerback -9.07439 2.09798 -5.18607
upperback -0.0103208 3.29925 1.79441
thorax 4.68312 1.51358 5.22167
lowerneck -8.66669 0.516608 -4.35982
upperneck 25.927 -2.39857 7.83089
head 9.71999 -1.40752 3.11093
rclavicle 3.24267e-014 1.94809e-014
rhumerus -42.981 -31.5685 -68.4184
rradius 27.188
rwrist 17.3623
rhand -17.2477 -45.1931
rfingers 7.12502
rthumb 8.99631 -74.9813
lclavicle 3.24267e-014 1.94809e-014
lhumerus -28.683 11.6469 85.0694
lradius 14.6149
lwrist -33.9317
lhand -27.8378 -19.1959
lfingers 7.12502
lthumb -1.22927 10.7803
rfemur -9.88787 3.14156 20.4267
rtibia 12.5801
rfoot -17.9242 -6.70309
rtoes -18.5765
lfemur -10.9185 -8.21858 -19.3594
ltibia 15.6694
lfoot -19.3636 2.18766
ltoes -52.2278
